<svg width="128" height="128" viewBox="0 0 128 128" fill="none" xmlns="http://www.w3.org/2000/svg">
  <defs>
    <linearGradient id="bg" x1="18" y1="14" x2="110" y2="114" gradientUnits="userSpaceOnUse">
      <stop offset="0" stop-color="#143C48"/>
      <stop offset="1" stop-color="#0A6A63"/>
    </linearGradient>
    <linearGradient id="paperA" x1="42" y1="22" x2="73" y2="92" gradientUnits="userSpaceOnUse">
      <stop offset="0" stop-color="#FFF8EA"/>
      <stop offset="1" stop-color="#F4D9A8"/>
    </linearGradient>
    <linearGradient id="paperB" x1="58" y1="35" x2="88" y2="91" gradientUnits="userSpaceOnUse">
      <stop offset="0" stop-color="#FCE8C5"/>
      <stop offset="1" stop-color="#E8BD74"/>
    </linearGradient>
    <linearGradient id="paperC" x1="55" y1="83" x2="96" y2="106" gradientUnits="userSpaceOnUse">
      <stop offset="0" stop-color="#FFD38C"/>
      <stop offset="1" stop-color="#F2B35A"/>
    </linearGradient>
    <linearGradient id="glow" x1="31" y1="22" x2="97" y2="99" gradientUnits="userSpaceOnUse">
      <stop offset="0" stop-color="#FFFFFF" stop-opacity="0.28"/>
      <stop offset="1" stop-color="#FFFFFF" stop-opacity="0.02"/>
    </linearGradient>
    <filter id="shadow" x="8" y="10" width="112" height="112" filterUnits="userSpaceOnUse" color-interpolation-filters="sRGB">
      <feDropShadow dx="0" dy="8" stdDeviation="10" flood-color="#08212A" flood-opacity="0.24"/>
    </filter>
  </defs>

  <g filter="url(#shadow)">
    <rect x="14" y="14" width="100" height="100" rx="28" fill="url(#bg)"/>
    <rect x="15.5" y="15.5" width="97" height="97" rx="26.5" stroke="#E9FFF8" stroke-opacity="0.12" stroke-width="3"/>
  </g>

  <path d="M43 26H68L59 37H55V88L43 100V26Z" fill="url(#paperA)"/>
  <path d="M68 26L84 39V91L72 102L59 88V37L68 26Z" fill="url(#paperB)"/>
  <path d="M43 88H59L72 102H92L81 112H55L43 100V88Z" fill="url(#paperC)"/>

  <path d="M59 37L68 26L84 39" stroke="#FFF8EA" stroke-opacity="0.58" stroke-width="2.5" stroke-linecap="round" stroke-linejoin="round"/>
  <path d="M59 88L72 102" stroke="#FFE7BE" stroke-opacity="0.65" stroke-width="2.5" stroke-linecap="round" stroke-linejoin="round"/>
  <path d="M43 88H59" stroke="#FFF7E6" stroke-opacity="0.42" stroke-width="2.5" stroke-linecap="round"/>

  <path d="M48 31.5H61.5" stroke="#FFFFFF" stroke-opacity="0.34" stroke-width="4" stroke-linecap="round"/>
  <path d="M48 41V90" stroke="#FFFFFF" stroke-opacity="0.23" stroke-width="4" stroke-linecap="round"/>
  <path d="M65 95H83" stroke="#FFFFFF" stroke-opacity="0.22" stroke-width="4" stroke-linecap="round"/>

  <rect x="22" y="22" width="84" height="84" rx="24" fill="url(#glow)"/>
</svg>