<svg width="128" height="128" viewBox="0 0 128 128" fill="none" xmlns="http://www.w3.org/2000/svg">
  <defs>
    <linearGradient id="bg" x1="18" y1="10" x2="112" y2="118" gradientUnits="userSpaceOnUse">
      <stop offset="0" stop-color="#F7F1E3"/>
      <stop offset="1" stop-color="#D7EAF0"/>
    </linearGradient>
    <linearGradient id="ink" x1="42" y1="24" x2="89" y2="104" gradientUnits="userSpaceOnUse">
      <stop offset="0" stop-color="#0F766E"/>
      <stop offset="1" stop-color="#155E75"/>
    </linearGradient>
    <linearGradient id="glow" x1="30" y1="22" x2="104" y2="106" gradientUnits="userSpaceOnUse">
      <stop offset="0" stop-color="#FFF7E5" stop-opacity="0.9"/>
      <stop offset="1" stop-color="#FFFFFF" stop-opacity="0.15"/>
    </linearGradient>
    <filter id="shadow" x="8" y="8" width="112" height="112" filterUnits="userSpaceOnUse" color-interpolation-filters="sRGB">
      <feDropShadow dx="0" dy="8" stdDeviation="10" flood-color="#13313A" flood-opacity="0.18"/>
    </filter>
  </defs>

  <g filter="url(#shadow)">
    <rect x="14" y="14" width="100" height="100" rx="26" fill="url(#bg)"/>
    <rect x="15.5" y="15.5" width="97" height="97" rx="24.5" stroke="#16303A" stroke-opacity="0.08" stroke-width="3"/>
  </g>

  <path d="M38 30C38 25.5817 41.5817 22 46 22H77.3726C79.4943 22 81.5292 22.8429 83.0294 24.3431L92.6569 33.9706C94.1571 35.4708 95 37.5057 95 39.6274V82C95 86.4183 91.4183 90 87 90H46C41.5817 90 38 86.4183 38 82V30Z" fill="url(#ink)"/>
  <path d="M83 22.5V34C83 36.2091 84.7909 38 87 38H98.5" fill="#82D3C6" fill-opacity="0.88"/>

  <rect x="49" y="45" width="35" height="6" rx="3" fill="#F4FBFA" fill-opacity="0.95"/>
  <rect x="49" y="57" width="24" height="6" rx="3" fill="#D9F1EE" fill-opacity="0.9"/>
  <rect x="49" y="69" width="30" height="6" rx="3" fill="#D9F1EE" fill-opacity="0.9"/>

  <path d="M63 32V97" stroke="#0F766E" stroke-width="7" stroke-linecap="round" stroke-dasharray="9 10"/>

  <path d="M24 39C24 35.6863 26.6863 33 30 33H41" stroke="#17424D" stroke-width="6" stroke-linecap="round"/>
  <path d="M104 39C104 35.6863 101.314 33 98 33H87" stroke="#17424D" stroke-width="6" stroke-linecap="round"/>
  <path d="M24 89C24 92.3137 26.6863 95 30 95H41" stroke="#17424D" stroke-width="6" stroke-linecap="round"/>
  <path d="M104 89C104 92.3137 101.314 95 98 95H87" stroke="#17424D" stroke-width="6" stroke-linecap="round"/>

  <rect x="17" y="17" width="94" height="94" rx="23" fill="url(#glow)" fill-opacity="0.28"/>
</svg>